<svg xmlns="http://www.w3.org/2000/svg" viewBox="0 0 512 512">
  <defs>
    <linearGradient id="bg" x1="0%" y1="0%" x2="100%" y2="100%">
      <stop offset="0%" style="stop-color:#1a1a2e"/>
      <stop offset="100%" style="stop-color:#16213e"/>
    </linearGradient>
  </defs>
  <!-- Background -->
  <rect width="512" height="512" rx="96" fill="url(#bg)"/>

  <!-- 2x2 grid with padding: each cell ~160px, 64px padding, 24px gap -->
  <!-- Top-left cell: x=64, y=64 -->
  <!-- Top-right cell: x=288, y=64 -->
  <!-- Bottom-left cell: x=64, y=288 -->

  <!-- Linear (top-left) — 24×24 scaled to 160px -->
  <g transform="translate(64, 64) scale(6.667)">
    <path d="M2.886 4.18A11.982 11.982 0 0 1 11.99 0C18.624 0 24 5.376 24 12.009c0 3.64-1.62 6.903-4.18 9.105L2.887 4.18ZM1.817 5.626l16.556 16.556c-.524.33-1.075.62-1.65.866L.951 7.277c.247-.575.537-1.126.866-1.65ZM.322 9.163l14.515 14.515c-.71.172-1.443.282-2.195.322L0 11.358a12 12 0 0 1 .322-2.195Zm-.17 4.862 9.823 9.824a12.02 12.02 0 0 1-9.824-9.824Z" fill="#5E6AD2"/>
  </g>

  <!-- GitHub (top-right) — 24×24 scaled to 160px -->
  <g transform="translate(288, 64) scale(6.667)">
    <path d="M12 .297c-6.63 0-12 5.373-12 12 0 5.303 3.438 9.8 8.205 11.385.6.113.82-.258.82-.577 0-.285-.01-1.04-.015-2.04-3.338.724-4.042-1.61-4.042-1.61C4.422 18.07 3.633 17.7 3.633 17.7c-1.087-.744.084-.729.084-.729 1.205.084 1.838 1.236 1.838 1.236 1.07 1.835 2.809 1.305 3.495.998.108-.776.417-1.305.76-1.605-2.665-.3-5.466-1.332-5.466-5.93 0-1.31.465-2.38 1.235-3.22-.135-.303-.54-1.523.105-3.176 0 0 1.005-.322 3.3 1.23.96-.267 1.98-.399 3-.405 1.02.006 2.04.138 3 .405 2.28-1.552 3.285-1.23 3.285-1.23.645 1.653.24 2.873.12 3.176.765.84 1.23 1.91 1.23 3.22 0 4.61-2.805 5.625-5.475 5.92.42.36.81 1.096.81 2.22 0 1.606-.015 2.896-.015 3.286 0 .315.21.69.825.57C20.565 22.092 24 17.592 24 12.297c0-6.627-5.373-12-12-12" fill="#e6edf3"/>
  </g>

  <!-- Cursor (bottom-left) — 167×190 normalized to 160px wide -->
  <g transform="translate(64, 278) scale(0.958)">
    <path d="M163.463 44.971L87.344 1.057C84.899-.354 81.883-.354 79.439 1.057L3.323 44.971C1.269 46.156 0 48.349 0 50.723V139.276C0 141.647 1.269 143.843 3.323 145.029L79.443 188.943C81.887 190.353 84.903 190.353 87.347 188.943L163.466 145.029C165.521 143.843 166.79 141.651 166.79 139.276V50.723C166.79 48.352 165.521 46.156 163.466 44.971H163.463ZM158.681 54.273L85.199 181.451C84.703 182.308 83.391 181.958 83.391 180.966V97.691C83.391 96.027 82.501 94.488 81.058 93.652L8.887 52.016C8.03 51.52 8.38 50.209 9.373 50.209H156.337C158.424 50.209 159.728 52.47 158.685 54.276H158.681V54.273Z" fill="#e6edf3"/>
  </g>
</svg>
